<svg width="24" height="24" viewBox="0 0 24 24" fill="none" xmlns="http://www.w3.org/2000/svg">
<path d="M11.9999 22C10.9299 22 9.86992 21.83 8.83992 21.48L7.41992 21.01L8.83992 20.54C12.5299 19.31 14.9999 15.88 14.9999 12C14.9999 8.12 12.5299 4.69 8.83992 3.47L7.41992 2.99L8.83992 2.52C9.86992 2.17 10.9299 2 11.9999 2C17.5099 2 21.9999 6.49 21.9999 12C21.9999 17.51 17.5099 22 11.9999 22ZM10.5799 20.89C11.0499 20.96 11.5299 21 11.9999 21C16.9599 21 20.9999 16.96 20.9999 12C20.9999 7.04 16.9599 3 11.9999 3C11.5299 3 11.0499 3.04 10.5799 3.11C13.8799 4.81 15.9999 8.21 15.9999 12C15.9999 15.79 13.8799 19.19 10.5799 20.89Z" fill="#909090"/>
</svg>
