<svg width="40" height="40" viewBox="0 0 40 40" fill="none" xmlns="http://www.w3.org/2000/svg">
<g id="Notification">
<g id="Vector">
<path fill-rule="evenodd" clip-rule="evenodd" d="M19.6 12.2C16.2863 12.2 13.6 14.8863 13.6 18.2V24.4485L11.2 26.8485V27.2H28V26.8485L25.6 24.4485V18.2C25.6 14.8863 22.9137 12.2 19.6 12.2ZM12.4 18.2C12.4 14.2235 15.6235 11 19.6 11C23.5764 11 26.8 14.2235 26.8 18.2V23.9515L29.2 26.3515V28.4H10V26.3515L12.4 23.9515V18.2Z" fill="white"/>
<path d="M17.4057 10.4C17.4057 9.07452 18.4802 8 19.8057 8C21.1312 8 22.2057 9.07452 22.2057 10.4V11.6H17.4057V10.4Z" fill="white"/>
<path d="M22.2057 29.6C22.2057 29.9152 22.1436 30.2273 22.023 30.5184C21.9024 30.8096 21.7256 31.0742 21.5028 31.2971C21.2799 31.5199 21.0153 31.6967 20.7242 31.8173C20.433 31.9379 20.1209 32 19.8057 32C19.4905 32 19.1785 31.9379 18.8873 31.8173C18.5961 31.6967 18.3315 31.5199 18.1087 31.2971C17.8858 31.0742 17.709 30.8096 17.5884 30.5184C17.4678 30.2273 17.4057 29.9152 17.4057 29.6H22.2057Z" fill="white"/>
</g>
</g>
</svg>
