<svg width="24" height="24" viewBox="0 0 24 24" fill="none" xmlns="http://www.w3.org/2000/svg">
<path d="M10.57 10.96C10.62 10.66 10.72 10.4 10.84 10.17C10.96 9.94 11.15 9.75 11.38 9.61C11.6 9.47 11.87 9.41 12.21 9.4C12.42 9.41 12.61 9.45 12.78 9.52C12.96 9.6 13.13 9.71 13.25 9.85C13.38 9.99 13.48 10.15 13.56 10.33C13.64 10.51 13.68 10.71 13.69 10.91H15.32C15.3 10.48 15.22 10.09 15.06 9.73C14.91 9.37 14.7 9.06 14.42 8.81C14.14 8.56 13.82 8.35 13.44 8.21C13.07 8.06 12.65 8 12.18 8C11.59 8 11.07 8.1 10.63 8.31C10.19 8.52 9.83 8.79 9.54 9.15C9.25 9.5 9.03 9.91 8.89 10.39C8.75 10.87 8.67 11.36 8.67 11.88V12.13C8.67 12.66 8.74 13.15 8.88 13.62C9.02 14.09 9.24 14.5 9.53 14.85C9.82 15.2 10.19 15.48 10.62 15.68C11.06 15.88 11.58 15.99 12.17 15.99C12.6 15.99 13 15.92 13.37 15.78C13.74 15.64 14.07 15.45 14.35 15.21C14.63 14.96 14.86 14.68 15.02 14.35C15.18 14.02 15.28 13.68 15.29 13.3H13.66C13.65 13.49 13.61 13.66 13.52 13.83C13.43 14 13.33 14.13 13.19 14.25C13.05 14.37 12.9 14.46 12.72 14.52C12.55 14.58 12.36 14.6 12.17 14.61C11.84 14.6 11.57 14.54 11.36 14.4C11.13 14.25 10.95 14.06 10.82 13.84C10.69 13.61 10.59 13.34 10.55 13.04C10.51 12.74 10.48 12.43 10.48 12.13V11.88C10.5 11.56 10.52 11.26 10.57 10.96ZM12 3C16.96 3 21 7.04 21 12C21 16.96 16.96 21 12 21C7.04 21 3 16.96 3 12C3 7.04 7.04 3 12 3ZM12 2C6.48 2 2 6.48 2 12C2 17.52 6.48 22 12 22C17.52 22 22 17.52 22 12C22 6.48 17.52 2 12 2Z" fill="black"/>
</svg>
