<svg width="48" height="48" viewBox="0 0 48 48" fill="none" xmlns="http://www.w3.org/2000/svg">
<g id="Frame">
<path id="Vector" d="M24 4C12.96 4 4 12.96 4 24C4 35.04 12.96 44 24 44C35.04 44 44 35.04 44 24C44 12.96 35.04 4 24 4ZM36.72 33.66C33.86 30.18 26.92 29 24 29C21.08 29 14.14 30.18 11.28 33.66C9.24 30.98 8 27.64 8 24C8 15.18 15.18 8 24 8C32.82 8 40 15.18 40 24C40 27.64 38.76 30.98 36.72 33.66ZM24 12C20.12 12 17 15.12 17 19C17 22.88 20.12 26 24 26C27.88 26 31 22.88 31 19C31 15.12 27.88 12 24 12Z" fill="black"/>
</g>
</svg>
