<svg width="75" height="24" viewBox="0 0 75 24" fill="none" xmlns="http://www.w3.org/2000/svg">
<g id="Frame">
<g id="qaEJec">
<path id="Vector" d="M67.954 16.303C66.624 16.303 65.676 15.695 65.068 14.499L73.035 11.199L72.765 10.519C72.27 9.189 70.757 6.729 67.663 6.729C64.595 6.729 62.041 9.139 62.041 12.689C62.041 16.029 64.571 18.649 67.961 18.649C70.691 18.649 72.271 16.979 72.931 16.009L70.901 14.659C70.228 15.639 69.301 16.299 67.971 16.299L67.954 16.303ZM67.751 9.033C68.791 9.033 69.671 9.553 69.961 10.297L64.641 12.507C64.581 10.207 66.431 9.033 67.761 9.033H67.751Z" fill="#EA4335"/>
</g>
<g id="YGlOvc">
<path id="Vector_2" d="M58.193 0.669983H60.757V18.11H58.193V0.669983Z" fill="#34A853"/>
</g>
<g id="BWfIk">
<path id="Vector_3" d="M54.152 8.06602H54.064C53.476 7.36902 52.348 6.73602 50.928 6.73602C47.948 6.73602 45.218 9.35002 45.218 12.716C45.218 16.054 47.948 18.649 50.928 18.649C52.348 18.649 53.476 18.009 54.064 17.289H54.152V18.149C54.152 20.429 52.935 21.649 50.969 21.649C49.359 21.649 48.369 20.499 47.969 19.529L45.689 20.469C46.339 22.049 48.079 23.989 50.969 23.989C54.029 23.989 56.629 22.182 56.629 17.783V7.21002H54.149V8.06802L54.152 8.06602ZM51.146 16.303C49.342 16.303 47.828 14.79 47.828 12.715C47.828 10.615 49.342 9.08002 51.146 9.08002C52.93 9.08002 54.329 10.614 54.329 12.715C54.329 14.79 52.929 16.303 51.139 16.303H51.146Z" fill="#4285F4"/>
</g>
<g id="e6m3fd">
<path id="Vector_4" d="M38.17 6.73499C34.89 6.73499 32.217 9.24098 32.217 12.695C32.217 16.127 34.89 18.655 38.171 18.655C41.461 18.655 44.131 16.127 44.131 12.695C44.131 9.23498 41.461 6.73499 38.181 6.73499H38.17ZM38.17 16.303C36.372 16.303 34.822 14.816 34.822 12.693C34.822 10.553 36.372 9.08499 38.172 9.08499C39.972 9.08499 41.52 10.552 41.52 12.695C41.52 14.811 39.97 16.303 38.17 16.303Z" fill="#FBBC05"/>
</g>
<g id="vbkDmc">
<path id="Vector_5" d="M25.17 6.71001C21.89 6.71001 19.216 9.21501 19.216 12.668C19.216 16.101 21.889 18.628 25.17 18.628C28.452 18.628 31.125 16.101 31.125 12.668C31.125 9.21501 28.452 6.70801 25.17 6.70801V6.71001ZM25.17 16.277C23.37 16.277 21.82 14.79 21.82 12.667C21.82 10.527 23.37 9.05901 25.17 9.05901C26.97 9.05901 28.52 10.519 28.52 12.659C28.52 14.779 26.97 16.269 25.17 16.269V16.277Z" fill="#EA4335"/>
</g>
<g id="idEJde">
<path id="Vector_6" d="M14.11 14.182C14.832 13.459 15.315 12.402 15.497 10.848H9.423V8.373H17.941C18.031 8.825 18.101 9.443 18.101 10.037C18.101 11.94 17.581 14.297 15.911 15.971C14.281 17.671 12.201 18.581 9.431 18.581C4.311 18.581 0.0109997 14.411 0.0109997 9.291C-2.91884e-07 4.17 4.31 0 9.43 0C12.26 0 14.273 1.108 15.792 2.56L14 4.347C12.913 3.327 11.44 2.537 9.423 2.537C5.683 2.537 2.761 5.547 2.761 9.287C2.761 13.027 5.691 16.037 9.431 16.037C11.861 16.037 13.241 15.065 14.121 14.181L14.11 14.182Z" fill="#4285F4"/>
</g>
</g>
</svg>
