<svg width="24" height="24" viewBox="0 0 24 24" fill="none" xmlns="http://www.w3.org/2000/svg">
<path d="M13.33 6C12.33 8.42 11.11 10.65 9.76 12.52L12.74 15.46L12.04 16.17L9.16 13.33C8.63 14 8.1 14.61 7.55 15.16L4.36 18.35L3.65 17.64L6.84 14.45C7.39 13.9 7.92 13.29 8.44 12.62L8.28 12.47C7.17 11.38 6.31 10.03 5.79 8.57L6.73 8.23C7.2 9.55 7.98 10.77 8.98 11.76L9.03 11.81C10.23 10.13 11.32 8.15 12.23 6H2V5H8V3H9V5H16V6H13.33ZM22 21H21L19.51 17H14.49L13 21H12L16 10H18L22 21ZM19.14 16L17.28 11H16.72L14.86 16H19.14Z" fill="white"/>
</svg>
