<svg width="20" height="20" viewBox="0 0 20 20" fill="none" xmlns="http://www.w3.org/2000/svg">
<g id="Vector">
<path fill-rule="evenodd" clip-rule="evenodd" d="M0 7.47942H5.5V19.4794H0V7.47942ZM1 8.47942V18.4794H4.5V8.47942H1Z" fill="white"/>
<path fill-rule="evenodd" clip-rule="evenodd" d="M14.1003 2.36398C14.4779 1.35702 13.2174 0.545297 12.4569 1.30575L5.5 8.26265V18.4795H14.7086C15.836 18.4795 16.8239 17.725 17.1205 16.6373L18.8286 10.3742C19.0889 9.42 18.3706 8.47953 17.3815 8.47953H12.5285C12.3645 8.47953 12.2109 8.39912 12.1175 8.26433C12.0241 8.12954 12.0028 7.95752 12.0603 7.80397L14.1003 2.36398ZM4.84413 7.50431L11.7498 0.598647C13.2707 -0.922255 15.7919 0.701164 15.0367 2.7151L13.25 7.47953H17.3815C19.0299 7.47953 20.2271 9.04698 19.7934 10.6373L18.0853 16.9004C17.67 18.4232 16.2869 19.4795 14.7086 19.4795H5C4.72386 19.4795 4.5 19.2557 4.5 18.9795V7.97953C4.5 7.75782 4.64431 7.5698 4.84413 7.50431Z" fill="white"/>
</g>
</svg>
