<svg width="24" height="24" viewBox="0 0 24 24" fill="none" xmlns="http://www.w3.org/2000/svg">
<path d="M11.99 1.98001C6.45998 1.98001 1.97998 6.47001 1.97998 12C1.97998 17.53 6.45998 22.02 11.99 22.02C17.53 22.02 22.02 17.53 22.02 12C22.02 6.47001 17.53 1.98001 11.99 1.98001ZM8.85998 14.5C8.69998 13.68 8.60998 12.85 8.60998 12C8.60998 11.13 8.69998 10.28 8.86998 9.45001H15.14C15.31 10.28 15.4 11.13 15.4 12C15.4 12.85 15.31 13.68 15.15 14.5H8.85998ZM14.89 15.5C14.35 17.39 13.37 19.14 12 20.65C10.63 19.15 9.64998 17.4 9.10998 15.5H14.89ZM9.11998 8.45001C9.65998 6.58001 10.64 4.84001 12 3.35001C13.36 4.84001 14.34 6.57001 14.88 8.45001H9.11998ZM16.15 9.45001H20.65C20.89 10.26 21.02 11.11 21.02 12C21.02 12.87 20.89 13.71 20.66 14.5H16.15C16.3 13.68 16.39 12.85 16.39 12C16.39 11.13 16.3 10.28 16.15 9.45001ZM20.29 8.45001H15.91C15.38 6.48001 14.44 4.64001 13.08 3.05001C16.33 3.45001 19.04 5.56001 20.29 8.45001ZM10.92 3.05001C9.56998 4.64001 8.61998 6.48001 8.08998 8.45001H3.70998C4.94998 5.55001 7.66998 3.44001 10.92 3.05001ZM3.34998 9.45001H7.84998C7.69998 10.28 7.60998 11.13 7.60998 12C7.60998 12.85 7.69998 13.68 7.84998 14.5H3.33998C3.10998 13.71 2.97998 12.87 2.97998 12C2.97998 11.11 3.10998 10.26 3.34998 9.45001ZM3.68998 15.5H8.07998C8.59998 17.49 9.55998 19.35 10.92 20.95C7.64998 20.56 4.91998 18.42 3.68998 15.5ZM13.09 20.95C14.45 19.35 15.41 17.49 15.93 15.5H20.32C19.08 18.42 16.35 20.55 13.09 20.95Z" fill="white"/>
</svg>
