<svg width="24" height="24" viewBox="0 0 24 24" fill="none" xmlns="http://www.w3.org/2000/svg">
<path d="M12 20.95C9.98333 20.3667 8.31233 19.154 6.987 17.312C5.66233 15.4707 5 13.4 5 11.1V5.70001L12 3.07501L19 5.70001V11.35C18.85 11.3 18.6833 11.25 18.5 11.2C18.3167 11.15 18.15 11.1083 18 11.075V6.37501L12 4.15001L6 6.37501V11.1C6 12.0833 6.146 13.0293 6.438 13.938C6.72933 14.846 7.125 15.6793 7.625 16.438C8.125 17.196 8.721 17.8583 9.413 18.425C10.1043 18.9917 10.8417 19.425 11.625 19.725L11.675 19.7C11.7583 19.9 11.8583 20.096 11.975 20.288C12.0917 20.4793 12.225 20.6583 12.375 20.825C12.3083 20.8417 12.246 20.8627 12.188 20.888C12.1293 20.9127 12.0667 20.9333 12 20.95ZM17 17C17.4167 17 17.7707 16.854 18.062 16.562C18.354 16.2707 18.5 15.9167 18.5 15.5C18.5 15.0833 18.354 14.7293 18.062 14.438C17.7707 14.146 17.4167 14 17 14C16.5833 14 16.2293 14.146 15.938 14.438C15.646 14.7293 15.5 15.0833 15.5 15.5C15.5 15.9167 15.646 16.2707 15.938 16.562C16.2293 16.854 16.5833 17 17 17ZM17 20C17.5333 20 18.0127 19.8833 18.438 19.65C18.8627 19.4167 19.2167 19.1 19.5 18.7C19.1167 18.4667 18.7167 18.2917 18.3 18.175C17.8833 18.0583 17.45 18 17 18C16.55 18 16.1167 18.0583 15.7 18.175C15.2833 18.2917 14.8833 18.4667 14.5 18.7C14.7833 19.1 15.1373 19.4167 15.562 19.65C15.9873 19.8833 16.4667 20 17 20ZM17 21C15.8833 21 14.9377 20.6123 14.163 19.837C13.3877 19.0623 13 18.1167 13 17C13 15.8833 13.3877 14.9373 14.163 14.162C14.9377 13.3873 15.8833 13 17 13C18.1167 13 19.0623 13.3873 19.837 14.162C20.6123 14.9373 21 15.8833 21 17C21 18.1167 20.6123 19.0623 19.837 19.837C19.0623 20.6123 18.1167 21 17 21Z" fill="white"/>
</svg>
