<svg width="20" height="20" viewBox="0 0 20 20" fill="none" xmlns="http://www.w3.org/2000/svg">
<g id="Vector">
<path fill-rule="evenodd" clip-rule="evenodd" d="M7.2341 0.417801C7.27428 0.176707 7.48287 0 7.72729 0H11.7273C11.9717 0 12.1803 0.176707 12.2205 0.417801L12.6672 3.09828C13.2276 3.33725 13.7527 3.64235 14.2329 4.00368L16.7791 3.04975C17.008 2.964 17.2654 3.0563 17.3876 3.26797L19.3876 6.73208C19.5098 6.94375 19.461 7.21275 19.2723 7.3681L17.1733 9.09607C17.209 9.39259 17.2273 9.69425 17.2273 10C17.2273 10.3058 17.209 10.6075 17.1733 10.904L19.2723 12.632C19.461 12.7873 19.5098 13.0563 19.3875 13.268L17.3875 16.7321C17.2653 16.9437 17.008 17.036 16.7791 16.9503L14.2328 15.9964C13.7527 16.3577 13.2275 16.6628 12.6672 16.9017L12.2205 19.5822C12.1803 19.8233 11.9717 20 11.7273 20H7.72729C7.48287 20 7.27428 19.8233 7.2341 19.5822L6.78735 16.9017C6.22702 16.6628 5.70188 16.3576 5.22172 15.9963L2.67544 16.9502C2.44655 17.036 2.18922 16.9437 2.06702 16.732L0.0670151 13.2679C-0.0551948 13.0563 -0.00646 12.7872 0.182242 12.6319L2.28126 10.9039C2.24561 10.6074 2.22729 10.3057 2.22729 10C2.22729 9.69423 2.24562 9.39255 2.28127 9.09601L0.182266 7.36805C-0.00643681 7.2127 -0.0551717 6.9437 0.0670381 6.73203L2.06704 3.26792C2.18925 3.05625 2.44658 2.96396 2.67546 3.0497L5.22177 4.00364C5.70192 3.64233 6.22704 3.33724 6.78735 3.09828L7.2341 0.417801ZM8.15086 1L7.72767 3.53908C7.69848 3.71427 7.57854 3.86083 7.41258 3.92409C6.76001 4.17285 6.15754 4.52391 5.62484 4.9579C5.48706 5.07016 5.30004 5.10083 5.13362 5.03849L2.72128 4.13474L1.14485 6.86521L3.13293 8.50187C3.2699 8.61462 3.33686 8.79152 3.30889 8.96671C3.25522 9.30292 3.22729 9.64802 3.22729 10C3.22729 10.352 3.25522 10.697 3.30889 11.0332C3.33685 11.2084 3.26989 11.3853 3.13292 11.4981L1.14482 13.1347L2.72126 15.8652L5.13357 14.9615C5.29999 14.8991 5.48701 14.9298 5.62479 15.0421C6.15751 15.4761 6.76 15.8271 7.41258 16.0759C7.57854 16.1392 7.69848 16.2857 7.72768 16.4609L8.15086 19H11.3037L11.7269 16.4609C11.7561 16.2857 11.876 16.1392 12.042 16.0759C12.6946 15.8272 13.297 15.4761 13.8297 15.0421C13.9675 14.9298 14.1545 14.8992 14.321 14.9615L16.7333 15.8653L18.3097 13.1348L16.3217 11.4981C16.1847 11.3854 16.1177 11.2085 16.1457 11.0333C16.1994 10.6971 16.2273 10.352 16.2273 10C16.2273 9.64804 16.1994 9.30296 16.1457 8.96676C16.1177 8.79157 16.1847 8.61468 16.3217 8.50193L18.3098 6.86526L16.7333 4.13479L14.321 5.03852C14.1546 5.10087 13.9676 5.07019 13.8298 4.95794C13.2971 4.52393 12.6946 4.17286 12.042 3.92409C11.876 3.86083 11.7561 3.71427 11.7269 3.53908L11.3037 1H8.15086Z" fill="white"/>
<path fill-rule="evenodd" clip-rule="evenodd" d="M9.72729 7.5C8.34658 7.5 7.22729 8.61929 7.22729 10C7.22729 11.3807 8.34658 12.5 9.72729 12.5C11.108 12.5 12.2273 11.3807 12.2273 10C12.2273 8.61929 11.108 7.5 9.72729 7.5ZM6.22729 10C6.22729 8.067 7.7943 6.5 9.72729 6.5C11.6603 6.5 13.2273 8.067 13.2273 10C13.2273 11.933 11.6603 13.5 9.72729 13.5C7.7943 13.5 6.22729 11.933 6.22729 10Z" fill="white"/>
</g>
</svg>
