<svg width="17" height="20" viewBox="0 0 17 20" fill="none" xmlns="http://www.w3.org/2000/svg">
<g id="Vector">
<path fill-rule="evenodd" clip-rule="evenodd" d="M2.75065 5.90259C1.31577 6.73102 0.824146 8.56579 1.65257 10.0007C2.08323 10.7466 2.78495 11.2374 3.56283 11.4208C3.76235 11.4678 3.91294 11.6319 3.94277 11.8347C3.9726 12.0375 3.87562 12.2379 3.69809 12.3404L2.50067 13.0318C1.06579 13.8602 0.574165 15.695 1.40259 17.1298C2.23102 18.5647 4.06579 19.0563 5.50067 18.2279L13.2949 13.7279C14.7298 12.8995 15.2214 11.0647 14.393 9.62984C13.9623 8.88393 13.2606 8.39316 12.4827 8.20975C12.2832 8.1627 12.1326 7.99865 12.1028 7.79584C12.0729 7.59304 12.1699 7.39257 12.3475 7.29008L13.5449 6.59874C14.9798 5.77032 15.4714 3.93555 14.643 2.50067C13.8145 1.06579 11.9798 0.574164 10.5449 1.40259L2.75065 5.90259ZM0.786548 10.5007C-0.318022 8.5875 0.337479 6.14114 2.25065 5.03657L10.0449 0.536566C11.958 -0.568003 14.4044 0.0874975 15.509 2.00067C16.6135 3.91384 15.958 6.3602 14.0449 7.46477L13.746 7.63735C14.3557 7.97728 14.8846 8.48137 15.259 9.12984C16.3636 11.043 15.7081 13.4894 13.7949 14.5939L6.00067 19.0939C4.0875 20.1985 1.64114 19.543 0.536566 17.6298C-0.568003 15.7167 0.0874975 13.2703 2.00067 12.1657L2.29959 11.9932C1.68988 11.6532 1.16095 11.1491 0.786548 10.5007Z" fill="white"/>
<path d="M11.1951 9.79078L6.69505 12.3889L6.69505 7.19271L11.1951 9.79078Z" fill="white"/>
</g>
</svg>
