<svg width="24" height="24" viewBox="0 0 24 24" fill="none" xmlns="http://www.w3.org/2000/svg">
<path d="M17.77 10.32L16.57 9.82001L18 9.06001C18.8779 8.59588 19.5354 7.80203 19.828 6.85309C20.1205 5.90416 20.0241 4.87787 19.56 4.00001C19.0959 3.12214 18.302 2.4646 17.3531 2.17205C16.4041 1.87949 15.3779 1.97588 14.5 2.44001L5.99999 6.94001C5.37521 7.26644 4.85541 7.7628 4.5005 8.37186C4.1456 8.98092 3.97005 9.67787 3.99409 10.3824C4.01813 11.0869 4.24078 11.7703 4.63638 12.3537C5.03198 12.9372 5.58441 13.3969 6.22999 13.68L7.42999 14.17L5.99999 14.93C5.14931 15.4097 4.5193 16.2022 4.24394 17.1392C3.96858 18.0762 4.0696 19.0836 4.52552 19.9472C4.98143 20.8109 5.75627 21.4626 6.68526 21.7638C7.61424 22.0649 8.62407 21.9918 9.49999 21.56L18 17.06C18.6248 16.7336 19.1446 16.2372 19.4995 15.6282C19.8544 15.0191 20.0299 14.3221 20.0059 13.6176C19.9819 12.9131 19.7592 12.2298 19.3636 11.6463C18.968 11.0629 18.4156 10.6031 17.77 10.32Z" fill="#FF0000"/>
<path d="M10 14.65L15 12L10 9.34998V14.65Z" fill="white"/>
</svg>
