<svg width="24" height="24" viewBox="0 0 24 24" fill="none" xmlns="http://www.w3.org/2000/svg">
<g id="Frame">
<path id="Vector" d="M4 20H18V21H3V6H4V20ZM6 3V18H21V3H6ZM8.02 17C8.38 14.87 9.95 12.9 13.5 12.9C17.05 12.9 18.62 14.87 18.98 17H8.02ZM11 8.5C11 7.83696 11.2634 7.20107 11.7322 6.73223C12.2011 6.26339 12.837 6 13.5 6C14.163 6 14.7989 6.26339 15.2678 6.73223C15.7366 7.20107 16 7.83696 16 8.5C16 9.16304 15.7366 9.79893 15.2678 10.2678C14.7989 10.7366 14.163 11 13.5 11C12.837 11 12.2011 10.7366 11.7322 10.2678C11.2634 9.79893 11 9.16304 11 8.5ZM14.21 11.93C14.9981 11.7654 15.7056 11.3346 16.2136 10.7101C16.7217 10.0855 16.9993 9.30511 17 8.5C17 6.57 15.43 5 13.5 5C11.57 5 10 6.57 10 8.5C10 10.19 11.2 11.6 12.79 11.93C9.31 12.19 7.39 14.35 7.01 17H7V4H20V17H19.99C19.61 14.35 17.68 12.19 14.21 11.93Z" fill="white"/>
</g>
</svg>
