<svg width="24" height="24" viewBox="0 0 24 24" fill="none" xmlns="http://www.w3.org/2000/svg">
<path d="M4 20H18V21H3V6H4V20ZM6 3V18H21V3H6ZM8.02 17C8.38 14.87 9.95 12.9 13.5 12.9C17.05 12.9 18.62 14.87 18.98 17H8.02ZM11 8.5C11 7.12 12.12 6 13.5 6C14.88 6 16 7.12 16 8.5C16 9.88 14.88 11 13.5 11C12.12 11 11 9.88 11 8.5ZM14.21 11.93C15.8 11.6 17 10.19 17 8.5C17 6.57 15.43 5 13.5 5C11.57 5 10 6.57 10 8.5C10 10.19 11.2 11.6 12.79 11.93C9.31 12.19 7.39 14.35 7.01 17H7V4H20V17H19.99C19.61 14.35 17.68 12.19 14.21 11.93Z" fill="#909090"/>
</svg>
