<svg width="20" height="20" viewBox="0 0 20 20" fill="none" xmlns="http://www.w3.org/2000/svg">
<g id="Vector">
<path fill-rule="evenodd" clip-rule="evenodd" d="M10 1C7.61305 1 5.32387 1.94821 3.63604 3.63604C1.94821 5.32387 1 7.61305 1 10C1 12.3869 1.94821 14.6761 3.63604 16.364C5.32387 18.0518 7.61305 19 10 19C12.3869 19 14.6761 18.0518 16.364 16.364C18.0518 14.6761 19 12.3869 19 10C19 7.61305 18.0518 5.32387 16.364 3.63604C14.6761 1.94821 12.3869 1 10 1ZM2.92893 2.92893C4.8043 1.05357 7.34784 -1.78814e-07 10 0C12.6522 1.78814e-07 15.1957 1.05357 17.0711 2.92893C18.9464 4.8043 20 7.34784 20 10C20 12.6522 18.9464 15.1957 17.0711 17.0711C15.1957 18.9464 12.6522 20 10 20C7.34783 20 4.8043 18.9464 2.92893 17.0711C1.05357 15.1957 -5.96046e-08 12.6522 0 10C2.38419e-07 7.34783 1.05357 4.8043 2.92893 2.92893Z" fill="white"/>
<path fill-rule="evenodd" clip-rule="evenodd" d="M8 5.25H10V10.724L13.5665 13.176L12.4335 14.824L8 11.776V5.25Z" fill="white"/>
</g>
</svg>
