<svg width="98" height="24" viewBox="0 0 98 24" fill="none" xmlns="http://www.w3.org/2000/svg">
<g clip-path="url(#clip0_135_1570)">
<path d="M33.5999 3.8C33.4001 3.08412 33.0191 2.43189 32.4935 1.90635C31.968 1.38081 31.3158 0.99975 30.5999 0.8C27.8999 0 17.0999 0 17.0999 0C17.0999 0 6.39989 0 3.79989 0.7C3.0762 0.883911 2.41554 1.25967 1.88755 1.78766C1.35956 2.31565 0.983804 2.97631 0.799892 3.7C-0.000107646 6.4 -0.000107668 12 -0.000107668 12C-0.0171718 14.749 0.217137 17.4937 0.699892 20.2C0.899642 20.9159 1.28071 21.5681 1.80624 22.0936C2.33178 22.6192 2.98402 23.0002 3.69989 23.2C6.39989 24 17.0999 24 17.0999 24C17.0999 24 27.7999 24 30.4999 23.3C31.2158 23.1002 31.868 22.7192 32.3935 22.1936C32.9191 21.6681 33.3001 21.0159 33.4999 20.3C33.9826 17.5937 34.217 14.849 34.1999 12.1C34.1999 12.1 34.2999 6.4 33.5999 3.8Z" fill="#FF0000"/>
<path d="M13.7002 17.1L22.6002 12L13.7002 6.90002V17.1ZM40.2002 16.5H43.3002C43.2002 19.3 43.7002 20.1 44.9002 20.1C46.1002 20.1 46.5002 19.4 46.5002 17.9C46.5002 15.6 45.3002 14.5 43.7002 13.1C41.1002 10.8 40.0002 9.50002 40.0002 6.30002C40.0002 3.10002 41.4002 1.40002 45.0002 1.40002C48.6002 1.40002 49.9002 3.40002 49.4002 7.60002L46.3002 7.80002C46.4002 5.00002 46.1002 3.90002 44.8002 3.90002C43.5002 3.90002 43.2002 4.70002 43.2002 6.10002C43.2002 8.20002 44.1002 8.90002 46.0002 10.7C48.4002 12.9 49.7002 14.2 49.7002 17.3C49.7002 21.2 48.2002 22.7 44.7002 22.7C41.0002 22.6 39.6002 20.7 40.2002 16.5ZM57.7002 21.9C56.7224 22.3219 55.6648 22.5266 54.6002 22.5C52.4002 22.5 52.0002 21.4 52.0002 18.7V9.90002H50.8002V7.30002H52.2002L52.6002 2.80002H55.0002V7.30002H57.3002V9.90002H55.1002V18.2C55.1002 19.6 55.3002 19.9 55.8002 19.9C56.2403 19.8889 56.6771 19.8217 57.1002 19.7L57.7002 21.9ZM68.4002 7.30002V22.4H65.7002L65.4002 20.6H65.3002C65.0326 21.2261 64.5862 21.7593 64.017 22.1328C63.4478 22.5063 62.781 22.7037 62.1002 22.7C60.1002 22.7 59.2002 21.4 59.2002 18.7V7.30002H62.6002V18.4C62.6002 19.7 62.9002 20.3 63.6002 20.3C63.9076 20.2957 64.2064 20.1976 64.4565 20.0189C64.7067 19.8402 64.8964 19.5894 65.0002 19.3V7.30002H68.4002ZM79.6002 0.900024V22.3H77.0002L76.6002 20.2H76.5002C76.2862 20.8853 75.862 21.4859 75.2877 21.9166C74.7133 22.3474 74.018 22.5865 73.3002 22.6C70.9002 22.6 70.1002 20.9 70.1002 16V13.6C70.1002 9.00002 71.1002 7.00002 73.4002 7.00002C73.9806 6.99351 74.5528 7.13747 75.061 7.41787C75.5693 7.69827 75.9962 8.10555 76.3002 8.60002H76.4002C76.3002 7.30002 76.3002 6.40002 76.3002 5.30002V0.900024H79.6002ZM76.3002 18.7V10.2C76.1702 9.96648 75.9824 9.77025 75.7547 9.63016C75.5271 9.49008 75.2673 9.41083 75.0002 9.40002C73.9002 9.40002 73.6002 10.4 73.6002 13.7V15.6C73.6002 19 73.9002 20 74.9002 20C75.4002 20.1 76.1002 19.6 76.3002 18.7ZM81.3002 3.40002C81.3002 1.80002 81.9002 1.30002 83.1002 1.30002C84.3002 1.30002 84.9002 1.80002 84.9002 3.40002C84.9002 5.00002 84.3002 5.50002 83.1002 5.50002C81.9002 5.50002 81.3002 5.10002 81.3002 3.40002ZM81.5002 7.30002H84.7002V22.4H81.5002V7.30002ZM86.3002 15.9V13.7C86.3002 8.80002 87.7002 7.00002 91.0002 7.00002C94.3002 7.00002 95.6002 8.90002 95.6002 13.7V15.9C95.6002 20.6 94.4002 22.6 90.9002 22.6C87.4002 22.6 86.3002 20.6 86.3002 15.9ZM92.2002 17.1V12.4C92.2002 10.3 91.9002 9.30002 90.9002 9.30002C89.9002 9.30002 89.7002 10.4 89.7002 12.4V17.1C89.7002 19.3 90.0002 20.2 90.9002 20.2C91.8002 20.2 92.2002 19.3 92.2002 17.1Z" fill="white"/>
</g>
<defs>
<clipPath id="clip0_135_1570">
<rect width="97.55" height="24" fill="white"/>
</clipPath>
</defs>
</svg>
