<svg width="24" height="24" viewBox="0 0 24 24" fill="none" xmlns="http://www.w3.org/2000/svg">
<path d="M10 9.35002L15 12L10 14.65V9.35002ZM12 3.00002C11.8935 2.99717 11.7877 3.01764 11.69 3.06002L4.3 7.28002C4.13547 7.40713 4.02768 7.59396 4 7.80002V16.2C4.02768 16.4061 4.13547 16.5929 4.3 16.72L11.69 20.94C11.8889 21.0201 12.1111 21.0201 12.31 20.94L19.7 16.72C19.8645 16.5929 19.9723 16.4061 20 16.2V7.80002C19.9723 7.59396 19.8645 7.40713 19.7 7.28002L12.31 3.06002C12.2123 3.01764 12.1065 2.99717 12 3.00002ZM12 2.00002C12.2787 1.99258 12.5544 2.05808 12.8 2.19002L20.2 6.41002C20.4334 6.56237 20.6274 6.76767 20.7665 7.00921C20.9055 7.25075 20.9855 7.52171 21 7.80002V16.2C20.9855 16.4783 20.9055 16.7493 20.7665 16.9908C20.6274 17.2324 20.4334 17.4377 20.2 17.59L12.8 21.81C12.5518 21.9349 12.2778 21.9999 12 21.9999C11.7222 21.9999 11.4482 21.9349 11.2 21.81L3.8 17.59C3.56664 17.4377 3.37255 17.2324 3.23354 16.9908C3.09452 16.7493 3.0145 16.4783 3 16.2V7.80002C3.0145 7.52171 3.09452 7.25075 3.23354 7.00921C3.37255 6.76767 3.56664 6.56237 3.8 6.41002L11.2 2.19002C11.4456 2.05808 11.7213 1.99258 12 2.00002ZM12 6.00002C11.9439 5.98843 11.8861 5.98843 11.83 6.00002L7.13 8.80002C7.04131 8.91023 6.99518 9.04864 7 9.19002V14.8C7.00421 14.9338 7.04961 15.063 7.13 15.17L11.83 17.97C11.884 17.9917 11.9419 18.0019 12 18C12.0558 18.0144 12.1142 18.0144 12.17 18L16.87 15.19C16.9612 15.0812 17.0077 14.9418 17 14.8V9.19002C16.9978 9.05587 16.9522 8.92604 16.87 8.82002L12.17 6.00002C12.1142 5.98563 12.0558 5.98563 12 6.00002ZM12 5.00002C12.2406 4.99815 12.4778 5.0566 12.69 5.17002L17.39 8.00002C17.5791 8.13544 17.7331 8.31409 17.8393 8.52108C17.9454 8.72807 18.0005 8.95742 18 9.19002V14.8C18.0021 15.0343 17.9477 15.2657 17.8416 15.4745C17.7354 15.6834 17.5805 15.8636 17.39 16L12.69 18.81C12.4797 18.9304 12.2423 18.9958 12 19C11.7626 19.0019 11.5286 18.9434 11.32 18.83L6.62 16C6.42826 15.8641 6.27189 15.6842 6.16401 15.4754C6.05614 15.2667 5.99989 15.035 6 14.8V9.19002C6.00148 8.9567 6.05849 8.72708 6.1663 8.52015C6.27411 8.31322 6.42963 8.13493 6.62 8.00002L11.32 5.20002C11.5258 5.07613 11.7599 5.00725 12 5.00002Z" fill="#FBFBFB"/>
</svg>
